<?xml version="1.0" encoding="utf-8" standalone="no"?>
<!DOCTYPE svg PUBLIC "-//W3C//DTD SVG 1.1//EN"
  "http://www.w3.org/Graphics/SVG/1.1/DTD/svg11.dtd">
<svg xmlns:xlink="http://www.w3.org/1999/xlink" width="464.328886pt" height="457.92pt" viewBox="0 0 464.328886 457.92" xmlns="http://www.w3.org/2000/svg" version="1.1">
 <metadata>
  <rdf:RDF xmlns:dc="http://purl.org/dc/elements/1.1/" xmlns:cc="http://creativecommons.org/ns#" xmlns:rdf="http://www.w3.org/1999/02/22-rdf-syntax-ns#">
   <cc:Work>
    <dc:type rdf:resource="http://purl.org/dc/dcmitype/StillImage"/>
    <dc:date>2026-03-30T22:18:41.242161</dc:date>
    <dc:format>image/svg+xml</dc:format>
    <dc:creator>
     <cc:Agent>
      <dc:title>Matplotlib v3.10.7, https://matplotlib.org/</dc:title>
     </cc:Agent>
    </dc:creator>
   </cc:Work>
  </rdf:RDF>
 </metadata>
 <defs>
  <style type="text/css">*{stroke-linejoin: round; stroke-linecap: butt}</style>
 </defs>
 <g id="figure_1">
  <g id="patch_1">
   <path d="M 0 457.92 
L 464.328886 457.92 
L 464.328886 0 
L 0 0 
z
" style="fill: #ffffff"/>
  </g>
  <g id="patch_2">
   <path d="M 7.2 450.72 
L 450.72 450.72 
L 450.72 7.2 
L 7.2 7.2 
z
" style="fill: #ffffff"/>
  </g>
  <g id="pane3d_1">
   <g id="patch_3">
    <path d="M 40.688819 341.362182 
L 187.153607 218.592492 
L 185.117607 41.536652 
L 31.643723 153.534902 
" style="fill: #f2f2f2; opacity: 0.5; stroke: #f2f2f2; stroke-linejoin: miter"/>
   </g>
  </g>
  <g id="pane3d_2">
   <g id="patch_4">
    <path d="M 187.153607 218.592492 
L 422.177334 286.90461 
L 430.564503 103.750285 
L 185.117607 41.536652 
" style="fill: #e6e6e6; opacity: 0.5; stroke: #e6e6e6; stroke-linejoin: miter"/>
   </g>
  </g>
  <g id="pane3d_3">
   <g id="patch_5">
    <path d="M 40.688819 341.362182 
L 289.825448 422.730204 
L 422.177334 286.90461 
L 187.153607 218.592492 
" style="fill: #ececec; opacity: 0.5; stroke: #ececec; stroke-linejoin: miter"/>
   </g>
  </g>
  <g id="grid3d_1">
   <g id="Line3DCollection_1">
    <path d="M 53.660305 345.598669 
L 199.441609 222.164128 
L 197.924924 44.782933 
" style="fill: none; stroke: #b0b0b0; stroke-width: 0.8"/>
    <path d="M 96.383623 359.552105 
L 239.873784 233.916166 
L 240.085787 55.469483 
" style="fill: none; stroke: #b0b0b0; stroke-width: 0.8"/>
    <path d="M 139.905613 373.766386 
L 280.998821 245.86959 
L 283.000544 66.347123 
" style="fill: none; stroke: #b0b0b0; stroke-width: 0.8"/>
    <path d="M 184.248881 388.248898 
L 322.834683 258.029623 
L 326.689599 77.421025 
" style="fill: none; stroke: #b0b0b0; stroke-width: 0.8"/>
    <path d="M 229.436896 403.007303 
L 365.39996 270.401669 
L 371.174096 88.696548 
" style="fill: none; stroke: #b0b0b0; stroke-width: 0.8"/>
    <path d="M 275.494029 418.049563 
L 408.713896 282.99132 
L 416.47596 100.17925 
" style="fill: none; stroke: #b0b0b0; stroke-width: 0.8"/>
   </g>
  </g>
  <g id="grid3d_2">
   <g id="Line3DCollection_2">
    <path d="M 42.256822 145.789945 
L 50.78148 332.902312 
L 298.983174 413.332125 
" style="fill: none; stroke: #b0b0b0; stroke-width: 0.8"/>
    <path d="M 60.162697 132.723053 
L 67.821301 318.619197 
L 314.431845 397.477988 
" style="fill: none; stroke: #b0b0b0; stroke-width: 0.8"/>
    <path d="M 77.714076 119.914856 
L 84.538412 304.606583 
L 329.572504 381.939948 
" style="fill: none; stroke: #b0b0b0; stroke-width: 0.8"/>
    <path d="M 94.921381 107.357749 
L 100.941894 290.856859 
L 344.414271 366.708643 
" style="fill: none; stroke: #b0b0b0; stroke-width: 0.8"/>
    <path d="M 111.794632 95.044419 
L 117.040492 277.362695 
L 358.965911 351.77508 
" style="fill: none; stroke: #b0b0b0; stroke-width: 0.8"/>
    <path d="M 128.343464 82.967835 
L 132.842626 264.117033 
L 373.235849 337.130614 
" style="fill: none; stroke: #b0b0b0; stroke-width: 0.8"/>
    <path d="M 144.577143 71.121235 
L 148.356413 251.113069 
L 387.232186 322.766929 
" style="fill: none; stroke: #b0b0b0; stroke-width: 0.8"/>
    <path d="M 160.504588 59.498111 
L 163.589672 238.344249 
L 400.962717 308.676027 
" style="fill: none; stroke: #b0b0b0; stroke-width: 0.8"/>
    <path d="M 176.134383 48.092199 
L 178.549945 225.804252 
L 414.434941 294.85021 
" style="fill: none; stroke: #b0b0b0; stroke-width: 0.8"/>
   </g>
  </g>
  <g id="grid3d_3">
   <g id="Line3DCollection_3">
    <path d="M 422.562701 278.489177 
L 187.05987 210.440866 
L 40.27389 332.745911 
" style="fill: none; stroke: #b0b0b0; stroke-width: 0.8"/>
    <path d="M 423.785336 251.789951 
L 186.762595 184.589085 
L 38.95704 305.400667 
" style="fill: none; stroke: #b0b0b0; stroke-width: 0.8"/>
    <path d="M 425.024012 224.740449 
L 186.461607 158.414376 
L 37.622253 277.682967 
" style="fill: none; stroke: #b0b0b0; stroke-width: 0.8"/>
    <path d="M 426.279045 197.333732 
L 186.156835 131.910652 
L 36.269162 249.585149 
" style="fill: none; stroke: #b0b0b0; stroke-width: 0.8"/>
    <path d="M 427.550762 169.562677 
L 185.848209 105.071668 
L 34.897386 221.09934 
" style="fill: none; stroke: #b0b0b0; stroke-width: 0.8"/>
    <path d="M 428.839498 141.41997 
L 185.535653 77.891024 
L 33.506537 192.217447 
" style="fill: none; stroke: #b0b0b0; stroke-width: 0.8"/>
    <path d="M 430.145598 112.8981 
L 185.219093 50.362153 
L 32.096213 162.931151 
" style="fill: none; stroke: #b0b0b0; stroke-width: 0.8"/>
   </g>
  </g>
  <g id="axis3d_1">
   <g id="line2d_1">
    <path d="M 40.688819 341.362182 
L 289.825448 422.730204 
" style="fill: none; stroke: #000000; stroke-width: 0.8; stroke-linecap: square"/>
   </g>
   <g id="xtick_1">
    <g id="line2d_2">
     <path d="M 54.929713 344.523848 
L 51.116045 347.752921 
" style="fill: none; stroke: #000000; stroke-width: 0.8; stroke-linecap: square"/>
    </g>
    <g id="text_1">
     <!-- 3 -->
     <g transform="translate(42.959927 368.87574) scale(0.1 -0.1)">
      <defs>
       <path id="DejaVuSans-33" d="M 2597 2516 
Q 3050 2419 3304 2112 
Q 3559 1806 3559 1356 
Q 3559 666 3084 287 
Q 2609 -91 1734 -91 
Q 1441 -91 1130 -33 
Q 819 25 488 141 
L 488 750 
Q 750 597 1062 519 
Q 1375 441 1716 441 
Q 2309 441 2620 675 
Q 2931 909 2931 1356 
Q 2931 1769 2642 2001 
Q 2353 2234 1838 2234 
L 1294 2234 
L 1294 2753 
L 1863 2753 
Q 2328 2753 2575 2939 
Q 2822 3125 2822 3475 
Q 2822 3834 2567 4026 
Q 2313 4219 1838 4219 
Q 1578 4219 1281 4162 
Q 984 4106 628 3988 
L 628 4550 
Q 988 4650 1302 4700 
Q 1616 4750 1894 4750 
Q 2613 4750 3031 4423 
Q 3450 4097 3450 3541 
Q 3450 3153 3228 2886 
Q 3006 2619 2597 2516 
z
" transform="scale(0.015625)"/>
      </defs>
      <use xlink:href="#DejaVuSans-33"/>
     </g>
    </g>
   </g>
   <g id="xtick_2">
    <g id="line2d_3">
     <path d="M 97.63402 358.457292 
L 93.877416 361.746469 
" style="fill: none; stroke: #000000; stroke-width: 0.8; stroke-linecap: square"/>
    </g>
    <g id="text_2">
     <!-- 4 -->
     <g transform="translate(85.709444 383.006042) scale(0.1 -0.1)">
      <defs>
       <path id="DejaVuSans-34" d="M 2419 4116 
L 825 1625 
L 2419 1625 
L 2419 4116 
z
M 2253 4666 
L 3047 4666 
L 3047 1625 
L 3713 1625 
L 3713 1100 
L 3047 1100 
L 3047 0 
L 2419 0 
L 2419 1100 
L 313 1100 
L 313 1709 
L 2253 4666 
z
" transform="scale(0.015625)"/>
      </defs>
      <use xlink:href="#DejaVuSans-34"/>
     </g>
    </g>
   </g>
   <g id="xtick_3">
    <g id="line2d_4">
     <path d="M 141.136064 372.651019 
L 137.439335 376.001994 
" style="fill: none; stroke: #000000; stroke-width: 0.8; stroke-linecap: square"/>
    </g>
    <g id="text_3">
     <!-- 5 -->
     <g transform="translate(129.259934 397.401096) scale(0.1 -0.1)">
      <defs>
       <path id="DejaVuSans-35" d="M 691 4666 
L 3169 4666 
L 3169 4134 
L 1269 4134 
L 1269 2991 
Q 1406 3038 1543 3061 
Q 1681 3084 1819 3084 
Q 2600 3084 3056 2656 
Q 3513 2228 3513 1497 
Q 3513 744 3044 326 
Q 2575 -91 1722 -91 
Q 1428 -91 1123 -41 
Q 819 9 494 109 
L 494 744 
Q 775 591 1075 516 
Q 1375 441 1709 441 
Q 2250 441 2565 725 
Q 2881 1009 2881 1497 
Q 2881 1984 2565 2268 
Q 2250 2553 1709 2553 
Q 1456 2553 1204 2497 
Q 953 2441 691 2322 
L 691 4666 
z
" transform="scale(0.015625)"/>
      </defs>
      <use xlink:href="#DejaVuSans-35"/>
     </g>
    </g>
   </g>
   <g id="xtick_4">
    <g id="line2d_5">
     <path d="M 185.458407 387.112392 
L 181.824494 390.526923 
" style="fill: none; stroke: #000000; stroke-width: 0.8; stroke-linecap: square"/>
    </g>
    <g id="text_4">
     <!-- 6 -->
     <g transform="translate(173.634122 412.068412) scale(0.1 -0.1)">
      <defs>
       <path id="DejaVuSans-36" d="M 2113 2584 
Q 1688 2584 1439 2293 
Q 1191 2003 1191 1497 
Q 1191 994 1439 701 
Q 1688 409 2113 409 
Q 2538 409 2786 701 
Q 3034 994 3034 1497 
Q 3034 2003 2786 2293 
Q 2538 2584 2113 2584 
z
M 3366 4563 
L 3366 3988 
Q 3128 4100 2886 4159 
Q 2644 4219 2406 4219 
Q 1781 4219 1451 3797 
Q 1122 3375 1075 2522 
Q 1259 2794 1537 2939 
Q 1816 3084 2150 3084 
Q 2853 3084 3261 2657 
Q 3669 2231 3669 1497 
Q 3669 778 3244 343 
Q 2819 -91 2113 -91 
Q 1303 -91 875 529 
Q 447 1150 447 2328 
Q 447 3434 972 4092 
Q 1497 4750 2381 4750 
Q 2619 4750 2861 4703 
Q 3103 4656 3366 4563 
z
" transform="scale(0.015625)"/>
      </defs>
      <use xlink:href="#DejaVuSans-36"/>
     </g>
    </g>
   </g>
   <g id="xtick_5">
    <g id="line2d_6">
     <path d="M 230.624473 401.849052 
L 227.056453 405.328964 
" style="fill: none; stroke: #000000; stroke-width: 0.8; stroke-linecap: square"/>
    </g>
    <g id="text_5">
     <!-- 7 -->
     <g transform="translate(218.855599 427.015789) scale(0.1 -0.1)">
      <defs>
       <path id="DejaVuSans-37" d="M 525 4666 
L 3525 4666 
L 3525 4397 
L 1831 0 
L 1172 0 
L 2766 4134 
L 525 4134 
L 525 4666 
z
" transform="scale(0.015625)"/>
      </defs>
      <use xlink:href="#DejaVuSans-37"/>
     </g>
    </g>
   </g>
   <g id="xtick_6">
    <g id="line2d_7">
     <path d="M 276.658586 416.868935 
L 273.159679 420.416126 
" style="fill: none; stroke: #000000; stroke-width: 0.8; stroke-linecap: square"/>
    </g>
    <g id="text_6">
     <!-- 8 -->
     <g transform="translate(264.948867 442.251325) scale(0.1 -0.1)">
      <defs>
       <path id="DejaVuSans-38" d="M 2034 2216 
Q 1584 2216 1326 1975 
Q 1069 1734 1069 1313 
Q 1069 891 1326 650 
Q 1584 409 2034 409 
Q 2484 409 2743 651 
Q 3003 894 3003 1313 
Q 3003 1734 2745 1975 
Q 2488 2216 2034 2216 
z
M 1403 2484 
Q 997 2584 770 2862 
Q 544 3141 544 3541 
Q 544 4100 942 4425 
Q 1341 4750 2034 4750 
Q 2731 4750 3128 4425 
Q 3525 4100 3525 3541 
Q 3525 3141 3298 2862 
Q 3072 2584 2669 2484 
Q 3125 2378 3379 2068 
Q 3634 1759 3634 1313 
Q 3634 634 3220 271 
Q 2806 -91 2034 -91 
Q 1263 -91 848 271 
Q 434 634 434 1313 
Q 434 1759 690 2068 
Q 947 2378 1403 2484 
z
M 1172 3481 
Q 1172 3119 1398 2916 
Q 1625 2713 2034 2713 
Q 2441 2713 2670 2916 
Q 2900 3119 2900 3481 
Q 2900 3844 2670 4047 
Q 2441 4250 2034 4250 
Q 1625 4250 1398 4047 
Q 1172 3844 1172 3481 
z
" transform="scale(0.015625)"/>
      </defs>
      <use xlink:href="#DejaVuSans-38"/>
     </g>
    </g>
   </g>
  </g>
  <g id="axis3d_2">
   <g id="line2d_8">
    <path d="M 422.177334 286.90461 
L 289.825448 422.730204 
" style="fill: none; stroke: #000000; stroke-width: 0.8; stroke-linecap: square"/>
   </g>
   <g id="xtick_7">
    <g id="line2d_9">
     <path d="M 296.891571 412.65434 
L 303.17179 414.689446 
" style="fill: none; stroke: #000000; stroke-width: 0.8; stroke-linecap: square"/>
    </g>
    <g id="text_7">
     <!-- 3.5 -->
     <g transform="translate(303.909162 434.35064) scale(0.1 -0.1)">
      <defs>
       <path id="DejaVuSans-2e" d="M 684 794 
L 1344 794 
L 1344 0 
L 684 0 
L 684 794 
z
" transform="scale(0.015625)"/>
      </defs>
      <use xlink:href="#DejaVuSans-33"/>
      <use xlink:href="#DejaVuSans-2e" transform="translate(63.623047 0)"/>
      <use xlink:href="#DejaVuSans-35" transform="translate(95.410156 0)"/>
     </g>
    </g>
   </g>
   <g id="xtick_8">
    <g id="line2d_10">
     <path d="M 312.354711 396.813782 
L 318.591432 398.808101 
" style="fill: none; stroke: #000000; stroke-width: 0.8; stroke-linecap: square"/>
    </g>
    <g id="text_8">
     <!-- 4.0 -->
     <g transform="translate(319.233612 418.355688) scale(0.1 -0.1)">
      <defs>
       <path id="DejaVuSans-30" d="M 2034 4250 
Q 1547 4250 1301 3770 
Q 1056 3291 1056 2328 
Q 1056 1369 1301 889 
Q 1547 409 2034 409 
Q 2525 409 2770 889 
Q 3016 1369 3016 2328 
Q 3016 3291 2770 3770 
Q 2525 4250 2034 4250 
z
M 2034 4750 
Q 2819 4750 3233 4129 
Q 3647 3509 3647 2328 
Q 3647 1150 3233 529 
Q 2819 -91 2034 -91 
Q 1250 -91 836 529 
Q 422 1150 422 2328 
Q 422 3509 836 4129 
Q 1250 4750 2034 4750 
z
" transform="scale(0.015625)"/>
      </defs>
      <use xlink:href="#DejaVuSans-34"/>
      <use xlink:href="#DejaVuSans-2e" transform="translate(63.623047 0)"/>
      <use xlink:href="#DejaVuSans-30" transform="translate(95.410156 0)"/>
     </g>
    </g>
   </g>
   <g id="xtick_9">
    <g id="line2d_11">
     <path d="M 327.509679 381.288915 
L 333.703381 383.243663 
" style="fill: none; stroke: #000000; stroke-width: 0.8; stroke-linecap: square"/>
    </g>
    <g id="text_9">
     <!-- 4.5 -->
     <g transform="translate(334.252419 402.679752) scale(0.1 -0.1)">
      <use xlink:href="#DejaVuSans-34"/>
      <use xlink:href="#DejaVuSans-2e" transform="translate(63.623047 0)"/>
      <use xlink:href="#DejaVuSans-35" transform="translate(95.410156 0)"/>
     </g>
    </g>
   </g>
   <g id="xtick_10">
    <g id="line2d_12">
     <path d="M 342.3656 366.070397 
L 348.516756 367.986738 
" style="fill: none; stroke: #000000; stroke-width: 0.8; stroke-linecap: square"/>
    </g>
    <g id="text_10">
     <!-- 5.0 -->
     <g transform="translate(348.974637 387.313382) scale(0.1 -0.1)">
      <use xlink:href="#DejaVuSans-35"/>
      <use xlink:href="#DejaVuSans-2e" transform="translate(63.623047 0)"/>
      <use xlink:href="#DejaVuSans-30" transform="translate(95.410156 0)"/>
     </g>
    </g>
   </g>
   <g id="xtick_11">
    <g id="line2d_13">
     <path d="M 356.931236 351.149247 
L 363.040318 353.028303 
" style="fill: none; stroke: #000000; stroke-width: 0.8; stroke-linecap: square"/>
    </g>
    <g id="text_11">
     <!-- 5.5 -->
     <g transform="translate(363.408965 372.247498) scale(0.1 -0.1)">
      <use xlink:href="#DejaVuSans-35"/>
      <use xlink:href="#DejaVuSans-2e" transform="translate(63.623047 0)"/>
      <use xlink:href="#DejaVuSans-35" transform="translate(95.410156 0)"/>
     </g>
    </g>
   </g>
   <g id="xtick_12">
    <g id="line2d_14">
     <path d="M 371.215014 336.516835 
L 377.282492 338.359683 
" style="fill: none; stroke: #000000; stroke-width: 0.8; stroke-linecap: square"/>
    </g>
    <g id="text_12">
     <!-- 6.0 -->
     <g transform="translate(377.563767 357.473371) scale(0.1 -0.1)">
      <use xlink:href="#DejaVuSans-36"/>
      <use xlink:href="#DejaVuSans-2e" transform="translate(63.623047 0)"/>
      <use xlink:href="#DejaVuSans-30" transform="translate(95.410156 0)"/>
     </g>
    </g>
   </g>
   <g id="xtick_13">
    <g id="line2d_15">
     <path d="M 385.225038 322.164859 
L 391.251375 323.972536 
" style="fill: none; stroke: #000000; stroke-width: 0.8; stroke-linecap: square"/>
    </g>
    <g id="text_13">
     <!-- 6.5 -->
     <g transform="translate(391.447084 342.982608) scale(0.1 -0.1)">
      <use xlink:href="#DejaVuSans-36"/>
      <use xlink:href="#DejaVuSans-2e" transform="translate(63.623047 0)"/>
      <use xlink:href="#DejaVuSans-35" transform="translate(95.410156 0)"/>
     </g>
    </g>
   </g>
   <g id="xtick_14">
    <g id="line2d_16">
     <path d="M 398.969102 308.085334 
L 404.954759 309.858838 
" style="fill: none; stroke: #000000; stroke-width: 0.8; stroke-linecap: square"/>
    </g>
    <g id="text_14">
     <!-- 7.0 -->
     <g transform="translate(405.066651 328.767133) scale(0.1 -0.1)">
      <use xlink:href="#DejaVuSans-37"/>
      <use xlink:href="#DejaVuSans-2e" transform="translate(63.623047 0)"/>
      <use xlink:href="#DejaVuSans-30" transform="translate(95.410156 0)"/>
     </g>
    </g>
   </g>
   <g id="xtick_15">
    <g id="line2d_17">
     <path d="M 412.454708 294.270576 
L 418.400143 296.010866 
" style="fill: none; stroke: #000000; stroke-width: 0.8; stroke-linecap: square"/>
    </g>
    <g id="text_15">
     <!-- 7.5 -->
     <g transform="translate(418.429916 314.819176) scale(0.1 -0.1)">
      <use xlink:href="#DejaVuSans-37"/>
      <use xlink:href="#DejaVuSans-2e" transform="translate(63.623047 0)"/>
      <use xlink:href="#DejaVuSans-35" transform="translate(95.410156 0)"/>
     </g>
    </g>
   </g>
  </g>
  <g id="axis3d_3">
   <g id="line2d_18">
    <path d="M 422.177334 286.90461 
L 430.564503 103.750285 
" style="fill: none; stroke: #000000; stroke-width: 0.8; stroke-linecap: square"/>
   </g>
   <g id="xtick_16">
    <g id="line2d_19">
     <path d="M 420.585994 277.918009 
L 426.520828 279.632874 
" style="fill: none; stroke: #000000; stroke-width: 0.8; stroke-linecap: square"/>
    </g>
    <g id="text_16">
     <!-- 4.0 -->
     <g transform="translate(432.918533 283.489319) scale(0.1 -0.1)">
      <use xlink:href="#DejaVuSans-34"/>
      <use xlink:href="#DejaVuSans-2e" transform="translate(63.623047 0)"/>
      <use xlink:href="#DejaVuSans-30" transform="translate(95.410156 0)"/>
     </g>
    </g>
   </g>
   <g id="xtick_17">
    <g id="line2d_20">
     <path d="M 421.795264 251.225724 
L 427.770256 252.919759 
" style="fill: none; stroke: #000000; stroke-width: 0.8; stroke-linecap: square"/>
    </g>
    <g id="text_17">
     <!-- 4.5 -->
     <g transform="translate(434.258038 256.821691) scale(0.1 -0.1)">
      <use xlink:href="#DejaVuSans-34"/>
      <use xlink:href="#DejaVuSans-2e" transform="translate(63.623047 0)"/>
      <use xlink:href="#DejaVuSans-35" transform="translate(95.410156 0)"/>
     </g>
    </g>
   </g>
   <g id="xtick_18">
    <g id="line2d_21">
     <path d="M 423.020392 224.183395 
L 429.036089 225.855903 
" style="fill: none; stroke: #000000; stroke-width: 0.8; stroke-linecap: square"/>
    </g>
    <g id="text_18">
     <!-- 5.0 -->
     <g transform="translate(435.615085 229.804841) scale(0.1 -0.1)">
      <use xlink:href="#DejaVuSans-35"/>
      <use xlink:href="#DejaVuSans-2e" transform="translate(63.623047 0)"/>
      <use xlink:href="#DejaVuSans-30" transform="translate(95.410156 0)"/>
     </g>
    </g>
   </g>
   <g id="xtick_19">
    <g id="line2d_22">
     <path d="M 424.261693 196.78409 
L 430.318652 198.434353 
" style="fill: none; stroke: #000000; stroke-width: 0.8; stroke-linecap: square"/>
    </g>
    <g id="text_19">
     <!-- 5.5 -->
     <g transform="translate(436.99002 202.431864) scale(0.1 -0.1)">
      <use xlink:href="#DejaVuSans-35"/>
      <use xlink:href="#DejaVuSans-2e" transform="translate(63.623047 0)"/>
      <use xlink:href="#DejaVuSans-35" transform="translate(95.410156 0)"/>
     </g>
    </g>
   </g>
   <g id="xtick_20">
    <g id="line2d_23">
     <path d="M 425.519488 169.020693 
L 431.618279 170.647971 
" style="fill: none; stroke: #000000; stroke-width: 0.8; stroke-linecap: square"/>
    </g>
    <g id="text_20">
     <!-- 6.0 -->
     <g transform="translate(438.383199 174.695671) scale(0.1 -0.1)">
      <use xlink:href="#DejaVuSans-36"/>
      <use xlink:href="#DejaVuSans-2e" transform="translate(63.623047 0)"/>
      <use xlink:href="#DejaVuSans-30" transform="translate(95.410156 0)"/>
     </g>
    </g>
   </g>
   <g id="xtick_21">
    <g id="line2d_24">
     <path d="M 426.79411 140.885899 
L 432.935313 142.489426 
" style="fill: none; stroke: #000000; stroke-width: 0.8; stroke-linecap: square"/>
    </g>
    <g id="text_21">
     <!-- 6.5 -->
     <g transform="translate(439.794987 146.588986) scale(0.1 -0.1)">
      <use xlink:href="#DejaVuSans-36"/>
      <use xlink:href="#DejaVuSans-2e" transform="translate(63.623047 0)"/>
      <use xlink:href="#DejaVuSans-35" transform="translate(95.410156 0)"/>
     </g>
    </g>
   </g>
   <g id="xtick_22">
    <g id="line2d_25">
     <path d="M 428.085897 112.372206 
L 434.270106 113.951192 
" style="fill: none; stroke: #000000; stroke-width: 0.8; stroke-linecap: square"/>
    </g>
    <g id="text_22">
     <!-- 7.0 -->
     <g transform="translate(441.225761 118.104333) scale(0.1 -0.1)">
      <use xlink:href="#DejaVuSans-37"/>
      <use xlink:href="#DejaVuSans-2e" transform="translate(63.623047 0)"/>
      <use xlink:href="#DejaVuSans-30" transform="translate(95.410156 0)"/>
     </g>
    </g>
   </g>
  </g>
  <g id="axes_1">
   <g id="Poly3DCollection_1">
    <path d="M 222.620846 249.85506 
L 231.767414 230.533209 
L 202.482393 232.62726 
z
" clip-path="url(#p6a895fbda1)" style="fill: #1f77b4; stroke: #000000"/>
    <path d="M 202.482393 232.62726 
L 231.767414 230.533209 
L 184.65709 168.834725 
z
" clip-path="url(#p6a895fbda1)" style="fill: #1f77b4; stroke: #000000"/>
    <path d="M 280.324977 237.238403 
L 246.070079 164.648147 
L 231.767414 230.533209 
z
" clip-path="url(#p6a895fbda1)" style="fill: #1f77b4; stroke: #000000"/>
    <path d="M 231.767414 230.533209 
L 246.070079 164.648147 
L 184.65709 168.834725 
z
" clip-path="url(#p6a895fbda1)" style="fill: #1f77b4; stroke: #000000"/>
    <path d="M 264.954772 270.262523 
L 231.767414 230.533209 
L 222.620846 249.85506 
z
" clip-path="url(#p6a895fbda1)" style="fill: #1f77b4; stroke: #000000"/>
    <path d="M 202.482393 232.62726 
L 184.65709 168.834725 
L 180.335018 189.079808 
z
" clip-path="url(#p6a895fbda1)" style="fill: #1f77b4; stroke: #000000"/>
    <path d="M 280.324977 237.238403 
L 231.767414 230.533209 
L 264.954772 270.262523 
z
" clip-path="url(#p6a895fbda1)" style="fill: #1f77b4; stroke: #000000"/>
    <path d="M 294.888654 171.061145 
L 246.070079 164.648147 
L 280.324977 237.238403 
z
" clip-path="url(#p6a895fbda1)" style="fill: #1f77b4; stroke: #000000"/>
    <path d="M 149.623407 252.482465 
L 222.620846 249.85506 
L 202.482393 232.62726 
z
" clip-path="url(#p6a895fbda1)" style="fill: #1f77b4; stroke: #000000"/>
    <path d="M 180.335018 189.079808 
L 184.65709 168.834725 
L 174.35997 170.875889 
z
" clip-path="url(#p6a895fbda1)" style="fill: #1f77b4; stroke: #000000"/>
    <path d="M 149.623407 252.482465 
L 202.482393 232.62726 
L 180.335018 189.079808 
z
" clip-path="url(#p6a895fbda1)" style="fill: #1f77b4; stroke: #000000"/>
    <path d="M 174.35997 170.875889 
L 184.65709 168.834725 
L 179.900567 155.78069 
z
" clip-path="url(#p6a895fbda1)" style="fill: #1f77b4; stroke: #000000"/>
    <path d="M 180.335018 189.079808 
L 174.35997 170.875889 
L 149.623407 252.482465 
z
" clip-path="url(#p6a895fbda1)" style="fill: #1f77b4; stroke: #000000"/>
    <path d="M 264.954772 270.262523 
L 222.620846 249.85506 
L 192.155682 289.069971 
z
" clip-path="url(#p6a895fbda1)" style="fill: #1f77b4; stroke: #000000"/>
    <path d="M 294.888654 171.061145 
L 280.324977 237.238403 
L 332.114536 188.385466 
z
" clip-path="url(#p6a895fbda1)" style="fill: #1f77b4; stroke: #000000"/>
    <path d="M 308.162407 275.093401 
L 280.324977 237.238403 
L 264.954772 270.262523 
z
" clip-path="url(#p6a895fbda1)" style="fill: #1f77b4; stroke: #000000"/>
    <path d="M 184.65709 168.834725 
L 246.070079 164.648147 
L 231.683454 121.307235 
z
" clip-path="url(#p6a895fbda1)" style="fill: #1f77b4; stroke: #000000"/>
    <path d="M 149.623407 252.482465 
L 192.155682 289.069971 
L 222.620846 249.85506 
z
" clip-path="url(#p6a895fbda1)" style="fill: #1f77b4; stroke: #000000"/>
    <path d="M 317.213846 255.350804 
L 280.324977 237.238403 
L 308.162407 275.093401 
z
" clip-path="url(#p6a895fbda1)" style="fill: #1f77b4; stroke: #000000"/>
    <path d="M 294.888654 171.061145 
L 281.526525 127.649816 
L 246.070079 164.648147 
z
" clip-path="url(#p6a895fbda1)" style="fill: #1f77b4; stroke: #000000"/>
    <path d="M 332.114536 188.385466 
L 280.324977 237.238403 
L 317.213846 255.350804 
z
" clip-path="url(#p6a895fbda1)" style="fill: #1f77b4; stroke: #000000"/>
    <path d="M 179.900567 155.78069 
L 184.65709 168.834725 
L 231.683454 121.307235 
z
" clip-path="url(#p6a895fbda1)" style="fill: #1f77b4; stroke: #000000"/>
    <path d="M 174.35997 170.875889 
L 129.470983 192.516309 
L 149.623407 252.482465 
z
" clip-path="url(#p6a895fbda1)" style="fill: #1f77b4; stroke: #000000"/>
    <path d="M 234.953519 310.080362 
L 264.954772 270.262523 
L 192.155682 289.069971 
z
" clip-path="url(#p6a895fbda1)" style="fill: #1f77b4; stroke: #000000"/>
    <path d="M 308.162407 275.093401 
L 264.954772 270.262523 
L 234.953519 310.080362 
z
" clip-path="url(#p6a895fbda1)" style="fill: #1f77b4; stroke: #000000"/>
    <path d="M 246.070079 164.648147 
L 281.526525 127.649816 
L 231.683454 121.307235 
z
" clip-path="url(#p6a895fbda1)" style="fill: #1f77b4; stroke: #000000"/>
    <path d="M 294.888654 171.061145 
L 332.114536 188.385466 
L 281.526525 127.649816 
z
" clip-path="url(#p6a895fbda1)" style="fill: #1f77b4; stroke: #000000"/>
    <path d="M 147.338362 142.075485 
L 174.35997 170.875889 
L 179.900567 155.78069 
z
" clip-path="url(#p6a895fbda1)" style="fill: #1f77b4; stroke: #000000"/>
    <path d="M 329.37777 269.765983 
L 317.213846 255.350804 
L 308.162407 275.093401 
z
" clip-path="url(#p6a895fbda1)" style="fill: #1f77b4; stroke: #000000"/>
    <path d="M 179.900567 155.78069 
L 231.683454 121.307235 
L 201.625388 123.287868 
z
" clip-path="url(#p6a895fbda1)" style="fill: #1f77b4; stroke: #000000"/>
    <path d="M 160.245666 304.501258 
L 192.155682 289.069971 
L 149.623407 252.482465 
z
" clip-path="url(#p6a895fbda1)" style="fill: #1f77b4; stroke: #000000"/>
    <path d="M 147.338362 142.075485 
L 129.470983 192.516309 
L 174.35997 170.875889 
z
" clip-path="url(#p6a895fbda1)" style="fill: #1f77b4; stroke: #000000"/>
    <path d="M 358.210304 217.486209 
L 332.114536 188.385466 
L 317.213846 255.350804 
z
" clip-path="url(#p6a895fbda1)" style="fill: #1f77b4; stroke: #000000"/>
    <path d="M 278.529258 315.429946 
L 308.162407 275.093401 
L 234.953519 310.080362 
z
" clip-path="url(#p6a895fbda1)" style="fill: #1f77b4; stroke: #000000"/>
    <path d="M 147.338362 142.075485 
L 179.900567 155.78069 
L 201.625388 123.287868 
z
" clip-path="url(#p6a895fbda1)" style="fill: #1f77b4; stroke: #000000"/>
    <path d="M 234.953519 310.080362 
L 192.155682 289.069971 
L 160.245666 304.501258 
z
" clip-path="url(#p6a895fbda1)" style="fill: #1f77b4; stroke: #000000"/>
    <path d="M 353.513797 238.410229 
L 317.213846 255.350804 
L 329.37777 269.765983 
z
" clip-path="url(#p6a895fbda1)" style="fill: #1f77b4; stroke: #000000"/>
    <path d="M 149.623407 252.482465 
L 129.470983 192.516309 
L 109.738249 222.766523 
z
" clip-path="url(#p6a895fbda1)" style="fill: #1f77b4; stroke: #000000"/>
    <path d="M 201.625388 123.287868 
L 231.683454 121.307235 
L 222.2232 116.834144 
z
" clip-path="url(#p6a895fbda1)" style="fill: #1f77b4; stroke: #000000"/>
    <path d="M 281.526525 127.649816 
L 222.2232 116.834144 
L 231.683454 121.307235 
z
" clip-path="url(#p6a895fbda1)" style="fill: #1f77b4; stroke: #000000"/>
    <path d="M 139.423443 286.524084 
L 160.245666 304.501258 
L 149.623407 252.482465 
z
" clip-path="url(#p6a895fbda1)" style="fill: #1f77b4; stroke: #000000"/>
    <path d="M 281.526525 127.649816 
L 332.114536 188.385466 
L 319.421276 144.790767 
z
" clip-path="url(#p6a895fbda1)" style="fill: #1f77b4; stroke: #000000"/>
    <path d="M 139.423443 286.524084 
L 149.623407 252.482465 
L 116.128946 241.530181 
z
" clip-path="url(#p6a895fbda1)" style="fill: #1f77b4; stroke: #000000"/>
    <path d="M 329.37777 269.765983 
L 308.162407 275.093401 
L 323.432848 304.655354 
z
" clip-path="url(#p6a895fbda1)" style="fill: #1f77b4; stroke: #000000"/>
    <path d="M 353.513797 238.410229 
L 358.210304 217.486209 
L 317.213846 255.350804 
z
" clip-path="url(#p6a895fbda1)" style="fill: #1f77b4; stroke: #000000"/>
    <path d="M 201.625388 123.287868 
L 222.2232 116.834144 
L 147.338362 142.075485 
z
" clip-path="url(#p6a895fbda1)" style="fill: #1f77b4; stroke: #000000"/>
    <path d="M 149.623407 252.482465 
L 109.738249 222.766523 
L 116.128946 241.530181 
z
" clip-path="url(#p6a895fbda1)" style="fill: #1f77b4; stroke: #000000"/>
    <path d="M 319.421276 144.790767 
L 332.114536 188.385466 
L 358.210304 217.486209 
z
" clip-path="url(#p6a895fbda1)" style="fill: #1f77b4; stroke: #000000"/>
    <path d="M 308.162407 275.093401 
L 278.529258 315.429946 
L 323.432848 304.655354 
z
" clip-path="url(#p6a895fbda1)" style="fill: #1f77b4; stroke: #000000"/>
    <path d="M 278.529258 315.429946 
L 234.953519 310.080362 
L 203.78202 326.097998 
z
" clip-path="url(#p6a895fbda1)" style="fill: #1f77b4; stroke: #000000"/>
    <path d="M 266.052375 120.07533 
L 222.2232 116.834144 
L 281.526525 127.649816 
z
" clip-path="url(#p6a895fbda1)" style="fill: #1f77b4; stroke: #000000"/>
    <path d="M 109.738249 222.766523 
L 129.470983 192.516309 
L 147.338362 142.075485 
z
" clip-path="url(#p6a895fbda1)" style="fill: #1f77b4; stroke: #000000"/>
    <path d="M 203.78202 326.097998 
L 234.953519 310.080362 
L 160.245666 304.501258 
z
" clip-path="url(#p6a895fbda1)" style="fill: #1f77b4; stroke: #000000"/>
    <path d="M 319.421276 144.790767 
L 266.052375 120.07533 
L 281.526525 127.649816 
z
" clip-path="url(#p6a895fbda1)" style="fill: #1f77b4; stroke: #000000"/>
    <path d="M 323.432848 304.655354 
L 353.513797 238.410229 
L 329.37777 269.765983 
z
" clip-path="url(#p6a895fbda1)" style="fill: #1f77b4; stroke: #000000"/>
    <path d="M 160.245666 304.501258 
L 139.423443 286.524084 
L 150.008324 301.584095 
z
" clip-path="url(#p6a895fbda1)" style="fill: #1f77b4; stroke: #000000"/>
    <path d="M 360.204968 223.166521 
L 358.210304 217.486209 
L 353.513797 238.410229 
z
" clip-path="url(#p6a895fbda1)" style="fill: #1f77b4; stroke: #000000"/>
    <path d="M 116.128946 241.530181 
L 150.008324 301.584095 
L 139.423443 286.524084 
z
" clip-path="url(#p6a895fbda1)" style="fill: #1f77b4; stroke: #000000"/>
    <path d="M 222.2232 116.834144 
L 190.474877 128.587199 
L 147.338362 142.075485 
z
" clip-path="url(#p6a895fbda1)" style="fill: #1f77b4; stroke: #000000"/>
    <path d="M 266.052375 120.07533 
L 190.474877 128.587199 
L 222.2232 116.834144 
z
" clip-path="url(#p6a895fbda1)" style="fill: #1f77b4; stroke: #000000"/>
    <path d="M 360.204968 223.166521 
L 354.491597 204.291366 
L 358.210304 217.486209 
z
" clip-path="url(#p6a895fbda1)" style="fill: #1f77b4; stroke: #000000"/>
    <path d="M 323.432848 304.655354 
L 360.204968 223.166521 
L 353.513797 238.410229 
z
" clip-path="url(#p6a895fbda1)" style="fill: #1f77b4; stroke: #000000"/>
    <path d="M 115.146764 207.36042 
L 109.738249 222.766523 
L 147.338362 142.075485 
z
" clip-path="url(#p6a895fbda1)" style="fill: #1f77b4; stroke: #000000"/>
    <path d="M 331.938099 158.441202 
L 319.421276 144.790767 
L 358.210304 217.486209 
z
" clip-path="url(#p6a895fbda1)" style="fill: #1f77b4; stroke: #000000"/>
    <path d="M 116.128946 241.530181 
L 109.738249 222.766523 
L 110.712913 228.490523 
z
" clip-path="url(#p6a895fbda1)" style="fill: #1f77b4; stroke: #000000"/>
    <path d="M 310.566509 140.443881 
L 266.052375 120.07533 
L 319.421276 144.790767 
z
" clip-path="url(#p6a895fbda1)" style="fill: #1f77b4; stroke: #000000"/>
    <path d="M 248.001979 331.751182 
L 278.529258 315.429946 
L 203.78202 326.097998 
z
" clip-path="url(#p6a895fbda1)" style="fill: #1f77b4; stroke: #000000"/>
    <path d="M 116.128946 241.530181 
L 110.712913 228.490523 
L 150.008324 301.584095 
z
" clip-path="url(#p6a895fbda1)" style="fill: #1f77b4; stroke: #000000"/>
    <path d="M 331.938099 158.441202 
L 358.210304 217.486209 
L 354.491597 204.291366 
z
" clip-path="url(#p6a895fbda1)" style="fill: #1f77b4; stroke: #000000"/>
    <path d="M 323.432848 304.655354 
L 278.529258 315.429946 
L 248.001979 331.751182 
z
" clip-path="url(#p6a895fbda1)" style="fill: #1f77b4; stroke: #000000"/>
    <path d="M 110.712913 228.490523 
L 109.738249 222.766523 
L 115.146764 207.36042 
z
" clip-path="url(#p6a895fbda1)" style="fill: #1f77b4; stroke: #000000"/>
    <path d="M 331.938099 158.441202 
L 310.566509 140.443881 
L 319.421276 144.790767 
z
" clip-path="url(#p6a895fbda1)" style="fill: #1f77b4; stroke: #000000"/>
    <path d="M 160.245666 304.501258 
L 186.851006 321.413471 
L 203.78202 326.097998 
z
" clip-path="url(#p6a895fbda1)" style="fill: #1f77b4; stroke: #000000"/>
    <path d="M 150.008324 301.584095 
L 186.851006 321.413471 
L 160.245666 304.501258 
z
" clip-path="url(#p6a895fbda1)" style="fill: #1f77b4; stroke: #000000"/>
    <path d="M 136.801961 174.319642 
L 115.146764 207.36042 
L 147.338362 142.075485 
z
" clip-path="url(#p6a895fbda1)" style="fill: #1f77b4; stroke: #000000"/>
    <path d="M 310.566509 140.443881 
L 234.953519 132.037408 
L 266.052375 120.07533 
z
" clip-path="url(#p6a895fbda1)" style="fill: #1f77b4; stroke: #000000"/>
    <path d="M 323.432848 304.655354 
L 345.290729 254.818104 
L 360.204968 223.166521 
z
" clip-path="url(#p6a895fbda1)" style="fill: #1f77b4; stroke: #000000"/>
    <path d="M 136.801961 174.319642 
L 110.712913 228.490523 
L 115.146764 207.36042 
z
" clip-path="url(#p6a895fbda1)" style="fill: #1f77b4; stroke: #000000"/>
    <path d="M 234.953519 132.037408 
L 190.474877 128.587199 
L 266.052375 120.07533 
z
" clip-path="url(#p6a895fbda1)" style="fill: #1f77b4; stroke: #000000"/>
    <path d="M 147.338362 142.075485 
L 190.474877 128.587199 
L 157.740423 167.988473 
z
" clip-path="url(#p6a895fbda1)" style="fill: #1f77b4; stroke: #000000"/>
    <path d="M 110.712913 228.490523 
L 132.682262 259.366336 
L 150.008324 301.584095 
z
" clip-path="url(#p6a895fbda1)" style="fill: #1f77b4; stroke: #000000"/>
    <path d="M 203.78202 326.097998 
L 238.365091 329.025381 
L 248.001979 331.751182 
z
" clip-path="url(#p6a895fbda1)" style="fill: #1f77b4; stroke: #000000"/>
    <path d="M 354.491597 204.291366 
L 360.204968 223.166521 
L 325.892101 191.510536 
z
" clip-path="url(#p6a895fbda1)" style="fill: #1f77b4; stroke: #000000"/>
    <path d="M 323.432848 304.655354 
L 248.001979 331.751182 
L 269.614649 326.63189 
z
" clip-path="url(#p6a895fbda1)" style="fill: #1f77b4; stroke: #000000"/>
    <path d="M 186.851006 321.413471 
L 238.365091 329.025381 
L 203.78202 326.097998 
z
" clip-path="url(#p6a895fbda1)" style="fill: #1f77b4; stroke: #000000"/>
    <path d="M 147.338362 142.075485 
L 157.740423 167.988473 
L 136.801961 174.319642 
z
" clip-path="url(#p6a895fbda1)" style="fill: #1f77b4; stroke: #000000"/>
    <path d="M 354.491597 204.291366 
L 325.892101 191.510536 
L 331.938099 158.441202 
z
" clip-path="url(#p6a895fbda1)" style="fill: #1f77b4; stroke: #000000"/>
    <path d="M 132.682262 259.366336 
L 186.851006 321.413471 
L 150.008324 301.584095 
z
" clip-path="url(#p6a895fbda1)" style="fill: #1f77b4; stroke: #000000"/>
    <path d="M 325.892101 191.510536 
L 310.566509 140.443881 
L 331.938099 158.441202 
z
" clip-path="url(#p6a895fbda1)" style="fill: #1f77b4; stroke: #000000"/>
    <path d="M 238.365091 329.025381 
L 269.614649 326.63189 
L 248.001979 331.751182 
z
" clip-path="url(#p6a895fbda1)" style="fill: #1f77b4; stroke: #000000"/>
    <path d="M 136.801961 174.319642 
L 147.652385 188.597736 
L 110.712913 228.490523 
z
" clip-path="url(#p6a895fbda1)" style="fill: #1f77b4; stroke: #000000"/>
    <path d="M 360.204968 223.166521 
L 345.290729 254.818104 
L 325.892101 191.510536 
z
" clip-path="url(#p6a895fbda1)" style="fill: #1f77b4; stroke: #000000"/>
    <path d="M 280.272964 152.96829 
L 234.953519 132.037408 
L 310.566509 140.443881 
z
" clip-path="url(#p6a895fbda1)" style="fill: #1f77b4; stroke: #000000"/>
    <path d="M 234.953519 132.037408 
L 157.740423 167.988473 
L 190.474877 128.587199 
z
" clip-path="url(#p6a895fbda1)" style="fill: #1f77b4; stroke: #000000"/>
    <path d="M 269.614649 326.63189 
L 293.850198 294.843154 
L 323.432848 304.655354 
z
" clip-path="url(#p6a895fbda1)" style="fill: #1f77b4; stroke: #000000"/>
    <path d="M 147.652385 188.597736 
L 132.682262 259.366336 
L 110.712913 228.490523 
z
" clip-path="url(#p6a895fbda1)" style="fill: #1f77b4; stroke: #000000"/>
    <path d="M 325.892101 191.510536 
L 280.272964 152.96829 
L 310.566509 140.443881 
z
" clip-path="url(#p6a895fbda1)" style="fill: #1f77b4; stroke: #000000"/>
    <path d="M 300.479009 279.296961 
L 345.290729 254.818104 
L 323.432848 304.655354 
z
" clip-path="url(#p6a895fbda1)" style="fill: #1f77b4; stroke: #000000"/>
    <path d="M 147.652385 188.597736 
L 136.801961 174.319642 
L 157.740423 167.988473 
z
" clip-path="url(#p6a895fbda1)" style="fill: #1f77b4; stroke: #000000"/>
    <path d="M 293.850198 294.843154 
L 300.479009 279.296961 
L 323.432848 304.655354 
z
" clip-path="url(#p6a895fbda1)" style="fill: #1f77b4; stroke: #000000"/>
    <path d="M 170.158778 279.080387 
L 186.851006 321.413471 
L 132.682262 259.366336 
z
" clip-path="url(#p6a895fbda1)" style="fill: #1f77b4; stroke: #000000"/>
    <path d="M 269.614649 326.63189 
L 238.365091 329.025381 
L 289.517804 281.691565 
z
" clip-path="url(#p6a895fbda1)" style="fill: #1f77b4; stroke: #000000"/>
    <path d="M 186.851006 321.413471 
L 222.813998 286.65134 
L 238.365091 329.025381 
z
" clip-path="url(#p6a895fbda1)" style="fill: #1f77b4; stroke: #000000"/>
    <path d="M 202.595427 171.954984 
L 157.740423 167.988473 
L 234.953519 132.037408 
z
" clip-path="url(#p6a895fbda1)" style="fill: #1f77b4; stroke: #000000"/>
    <path d="M 280.272964 152.96829 
L 202.595427 171.954984 
L 234.953519 132.037408 
z
" clip-path="url(#p6a895fbda1)" style="fill: #1f77b4; stroke: #000000"/>
    <path d="M 325.892101 191.510536 
L 345.290729 254.818104 
L 300.479009 279.296961 
z
" clip-path="url(#p6a895fbda1)" style="fill: #1f77b4; stroke: #000000"/>
    <path d="M 157.740423 167.988473 
L 202.595427 171.954984 
L 147.652385 188.597736 
z
" clip-path="url(#p6a895fbda1)" style="fill: #1f77b4; stroke: #000000"/>
    <path d="M 269.614649 326.63189 
L 289.517804 281.691565 
L 293.850198 294.843154 
z
" clip-path="url(#p6a895fbda1)" style="fill: #1f77b4; stroke: #000000"/>
    <path d="M 185.498298 207.41001 
L 132.682262 259.366336 
L 147.652385 188.597736 
z
" clip-path="url(#p6a895fbda1)" style="fill: #1f77b4; stroke: #000000"/>
    <path d="M 170.158778 279.080387 
L 222.813998 286.65134 
L 186.851006 321.413471 
z
" clip-path="url(#p6a895fbda1)" style="fill: #1f77b4; stroke: #000000"/>
    <path d="M 248.447958 193.544965 
L 280.272964 152.96829 
L 325.892101 191.510536 
z
" clip-path="url(#p6a895fbda1)" style="fill: #1f77b4; stroke: #000000"/>
    <path d="M 238.365091 329.025381 
L 222.813998 286.65134 
L 289.517804 281.691565 
z
" clip-path="url(#p6a895fbda1)" style="fill: #1f77b4; stroke: #000000"/>
    <path d="M 170.158778 279.080387 
L 132.682262 259.366336 
L 185.498298 207.41001 
z
" clip-path="url(#p6a895fbda1)" style="fill: #1f77b4; stroke: #000000"/>
    <path d="M 147.652385 188.597736 
L 202.595427 171.954984 
L 185.498298 207.41001 
z
" clip-path="url(#p6a895fbda1)" style="fill: #1f77b4; stroke: #000000"/>
    <path d="M 248.447958 193.544965 
L 202.595427 171.954984 
L 280.272964 152.96829 
z
" clip-path="url(#p6a895fbda1)" style="fill: #1f77b4; stroke: #000000"/>
    <path d="M 325.892101 191.510536 
L 300.479009 279.296961 
L 294.355689 259.821117 
z
" clip-path="url(#p6a895fbda1)" style="fill: #1f77b4; stroke: #000000"/>
    <path d="M 289.517804 281.691565 
L 300.479009 279.296961 
L 293.850198 294.843154 
z
" clip-path="url(#p6a895fbda1)" style="fill: #1f77b4; stroke: #000000"/>
    <path d="M 294.355689 259.821117 
L 270.592895 212.363115 
L 325.892101 191.510536 
z
" clip-path="url(#p6a895fbda1)" style="fill: #1f77b4; stroke: #000000"/>
    <path d="M 289.517804 281.691565 
L 294.355689 259.821117 
L 300.479009 279.296961 
z
" clip-path="url(#p6a895fbda1)" style="fill: #1f77b4; stroke: #000000"/>
    <path d="M 270.592895 212.363115 
L 248.447958 193.544965 
L 325.892101 191.510536 
z
" clip-path="url(#p6a895fbda1)" style="fill: #1f77b4; stroke: #000000"/>
    <path d="M 202.595427 171.954984 
L 248.447958 193.544965 
L 185.498298 207.41001 
z
" clip-path="url(#p6a895fbda1)" style="fill: #1f77b4; stroke: #000000"/>
    <path d="M 170.158778 279.080387 
L 185.498298 207.41001 
L 222.813998 286.65134 
z
" clip-path="url(#p6a895fbda1)" style="fill: #1f77b4; stroke: #000000"/>
    <path d="M 294.355689 259.821117 
L 289.517804 281.691565 
L 238.461535 214.635244 
z
" clip-path="url(#p6a895fbda1)" style="fill: #1f77b4; stroke: #000000"/>
    <path d="M 289.517804 281.691565 
L 222.813998 286.65134 
L 238.461535 214.635244 
z
" clip-path="url(#p6a895fbda1)" style="fill: #1f77b4; stroke: #000000"/>
    <path d="M 222.813998 286.65134 
L 185.498298 207.41001 
L 238.461535 214.635244 
z
" clip-path="url(#p6a895fbda1)" style="fill: #1f77b4; stroke: #000000"/>
    <path d="M 185.498298 207.41001 
L 248.447958 193.544965 
L 238.461535 214.635244 
z
" clip-path="url(#p6a895fbda1)" style="fill: #1f77b4; stroke: #000000"/>
    <path d="M 294.355689 259.821117 
L 238.461535 214.635244 
L 270.592895 212.363115 
z
" clip-path="url(#p6a895fbda1)" style="fill: #1f77b4; stroke: #000000"/>
    <path d="M 238.461535 214.635244 
L 248.447958 193.544965 
L 270.592895 212.363115 
z
" clip-path="url(#p6a895fbda1)" style="fill: #1f77b4; stroke: #000000"/>
   </g>
  </g>
 </g>
 <defs>
  <clipPath id="p6a895fbda1">
   <rect x="7.2" y="7.2" width="443.52" height="443.52"/>
  </clipPath>
 </defs>
</svg>
